<?xml version="1.0" encoding="utf-8"?>
<!-- Generator: Adobe Illustrator 23.0.0, SVG Export Plug-In . SVG Version: 6.00 Build 0)  -->
<svg version="1.1" id="Layer_2_1_" xmlns="http://www.w3.org/2000/svg" xmlns:xlink="http://www.w3.org/1999/xlink" x="0px" y="0px"
	 viewBox="0 0 64 64" style="enable-background:new 0 0 64 64;" xml:space="preserve">
<path d="M49.9,8h-4.5V7.2c0-2.4-2.1-4.5-4.5-4.5h-6.1C34.7,1.1,33.6,0,32,0c-1.6,0-2.7,1.1-2.7,2.7h-6.1c-2.4,0-4.5,2.1-4.5,4.5V8
	h-4.5c-1.9,0-3.5,1.6-3.5,3.5v48.8c0,2.1,1.6,3.7,3.7,3.7h35.5c1.1,0,2.1-0.5,2.7-1.3c0.5-0.8,0.8-1.6,0.8-2.4V11.5
	C53.3,9.6,51.7,8,49.9,8z M24,8h16v5.3H24V8z M48,58.7H16V13.3h2.7v0.8c0,2.4,2.1,4.5,4.5,4.5h17.6c2.4,0,4.5-2.1,4.5-4.5v-0.8H48
	V58.7z"/>
</svg>
