<?xml version="1.0" encoding="utf-8"?>
<!-- Generator: Adobe Illustrator 21.0.2, SVG Export Plug-In . SVG Version: 6.00 Build 0)  -->
<svg version="1.1" id="Layer_2_1_" xmlns="http://www.w3.org/2000/svg" xmlns:xlink="http://www.w3.org/1999/xlink" x="0px" y="0px"
	 viewBox="0 0 64 64" style="enable-background:new 0 0 64 64;" xml:space="preserve">
<g>
	<g>
		<path d="M32.1,45.2c-7.3,0-13.2-5.9-13.2-13.2s5.9-13.2,13.2-13.2S45.3,24.7,45.3,32C45.2,39.3,39.3,45.2,32.1,45.2z M32.1,23.9
			c-4.5,0-8.2,3.7-8.2,8.2s3.7,8.2,8.2,8.2s8.2-3.7,8.2-8.2S36.6,23.9,32.1,23.9z"/>
	</g>
	<g>
		<path d="M32.1,45.2c-7.3,0-13.2-5.9-13.2-13.2s5.9-13.2,13.2-13.2S45.3,24.7,45.3,32C45.2,39.3,39.3,45.2,32.1,45.2z M32.1,23.9
			c-4.5,0-8.2,3.7-8.2,8.2s3.7,8.2,8.2,8.2s8.2-3.7,8.2-8.2S36.6,23.9,32.1,23.9z"/>
	</g>
	<g>
		<path d="M32.1,45.2c-7.3,0-13.2-5.9-13.2-13.2s5.9-13.2,13.2-13.2S45.3,24.7,45.3,32C45.2,39.3,39.3,45.2,32.1,45.2z M32.1,23.9
			c-4.5,0-8.2,3.7-8.2,8.2s3.7,8.2,8.2,8.2s8.2-3.7,8.2-8.2S36.6,23.9,32.1,23.9z"/>
	</g>
	<g>
		<path d="M37.4,63.8H26.7c-2.8,0-5.2-2.3-5.2-5.2v-4.5c0-0.1,0-0.1-0.1-0.1c-1.6-0.8-2.8-1.7-4-2.8c-0.2-0.2-0.5-0.4-0.8-0.6
			l-6.3,3.5c-1.5,0.6-3.2,0-4-1.3l-6-10.3c-0.6-1.5-0.1-3.2,1.3-4l6-3.3c-0.1-1.1-0.2-2.2-0.2-3.3c0-1.3,0.1-2.4,0.2-3.4l-5.8-3.2
			c-0.8-0.4-1.3-1.1-1.5-2c-0.2-0.8-0.1-1.7,0.3-2.5l5.8-9.9c0.9-1.4,2.6-2.2,4.8-1l5.5,3.1c0.2-0.2,0.5-0.4,0.7-0.6
			c1.2-1,2.4-2,4-2.8c0.1,0,0.1-0.1,0.1-0.1V5.4c0-2.8,2.3-5.2,5.2-5.2h10.7c2.8,0,5.2,2.3,5.2,5.2v3.9c0,0.1,0,0.1,0.1,0.1
			c1.6,0.8,2.7,1.7,3.9,2.7c0.3,0.2,0.5,0.5,0.8,0.7l6.3-3.5c1.5-0.6,3.2,0,4,1.3l6.1,10.3c0.6,1.5,0.1,3.2-1.3,4l-5.9,3.3
			c0.2,1.1,0.2,2.2,0.2,3.5c0,1.1-0.1,2.3-0.3,3.4l5.8,3.2c0.8,0.4,1.3,1.1,1.5,1.9s0.1,1.7-0.3,2.4l-5.9,10
			c-0.8,1.3-2.6,2.1-4.8,0.9l-5.5-3.1c-0.3,0.2-0.5,0.4-0.8,0.7c-1.2,1-2.3,2-3.9,2.7c-0.1,0-0.1,0.1-0.1,0.1v4.6
			C42.5,61.5,40.2,63.8,37.4,63.8z M16.8,45.5c0.9,0,1.8,0.3,2.6,0.9c0.5,0.4,0.9,0.7,1.3,1.1c1.1,0.9,1.8,1.6,2.9,2.1
			c1.8,0.8,3,2.7,3,4.7v4.5c0,0.1,0.1,0.2,0.2,0.2h10.7c0.1,0,0.2-0.1,0.2-0.2V54c0-2,1.1-3.8,2.9-4.6c1-0.5,1.8-1.1,2.8-2
			c0.4-0.4,0.8-0.7,1.3-1.1c1.3-1.1,3.1-1.2,4.6-0.4l4.9,2.8l4-6.8l-4.6-2.5c-1.6-0.9-2.5-2.7-2.2-4.5c0.2-1,0.3-2.1,0.3-3.1
			c0-1.1-0.1-2.2-0.2-3.1c-0.3-1.8,0.5-3.6,2.1-4.5l4.7-2.6l-4.1-6.8l-4.9,2.8c-1.5,0.8-3.3,0.7-4.6-0.4c-0.5-0.4-1-0.8-1.4-1.2
			c-1-0.9-1.8-1.5-2.8-2c-1.8-0.9-2.9-2.7-2.9-4.6V5.3c0-0.1-0.1-0.2-0.2-0.2H26.7c-0.1,0-0.2,0.1-0.2,0.2v4.1c0,2-1.2,3.8-2.9,4.6
			c-1,0.5-1.8,1.2-2.9,2.1c-0.4,0.3-0.8,0.7-1.3,1c-1.3,1.1-3.1,1.2-4.6,0.4l-4.9-2.7l-4,6.8l4.7,2.6c1.6,0.9,2.5,2.7,2.1,4.5
			c-0.2,0.9-0.2,1.9-0.2,3c0,1.1,0.1,2.1,0.2,3.1l0,0c0.2,1.8-0.6,3.5-2.1,4.3l-4.8,2.7l4.1,6.8l4.9-2.8
			C15.4,45.6,16.1,45.5,16.8,45.5z M7.7,35.6L7.7,35.6L7.7,35.6z"/>
	</g>
</g>
</svg>
